<svg id="Capa_1" enable-background="new 0 0 512 512" height="512" viewBox="0 0 512 512" width="512" xmlns="http://www.w3.org/2000/svg">
    <g>
        <path d="m448 0h-384v275h384zm-30 245h-324v-215h324z"/>
        <path d="m383.979 59.5h-255.958v156h255.957v-156zm-225.958 96h48.691l29.5 30h-78.191zm195.958 30h-75.691l-59-60h-61.266v-36h195.957z"/>
        <path d="m286 119.5h30v30h-30z"/>
        <path d="m64 318h30v30h-30z"/><path d="m241 318h30v30h-30z"/>
        <path d="m418 318h30v30h-30z"/>
        <path d="m448 482v-104h-30c2.545 18.634-29.246 53.208-73.5 54.001-44.293-.817-76.003-35.324-73.5-54.001h-30c2.545 18.634-29.245 53.208-73.5 54.001-44.293-.817-76.003-35.324-73.5-54.001h-30v104h-28v30h86v-30h-28v-47.615c42.558 36.447 104.468 36.426 147 0v47.615h-28v30h86v-30h-28v-47.615c42.558 36.447 104.469 36.425 147 0v47.615h-28v30h86v-30z"/>
    </g>
</svg>